# PLA block variant (generate_pla_block_mesh.py)
v -0.910000 -1.000000 -1.000000
v -1.000000 -0.910000 -1.000000
v -1.000000 -1.000000 -0.910000
v -0.910000 -1.000000 1.000000
v -1.000000 -0.910000 1.000000
v -1.000000 -1.000000 0.910000
v -0.910000 1.000000 -1.000000
v -1.000000 0.910000 -1.000000
v -1.000000 1.000000 -0.910000
v -0.910000 1.000000 1.000000
v -1.000000 0.910000 1.000000
v -1.000000 1.000000 0.910000
v 0.910000 -1.000000 -1.000000
v 1.000000 -0.910000 -1.000000
v 1.000000 -1.000000 -0.910000
v 0.910000 -1.000000 1.000000
v 1.000000 -0.910000 1.000000
v 1.000000 -1.000000 0.910000
v 0.910000 1.000000 -1.000000
v 1.000000 0.910000 -1.000000
v 1.000000 1.000000 -0.910000
v 0.910000 1.000000 1.000000
v 1.000000 0.910000 1.000000
v 1.000000 1.000000 0.910000
vt 0.045000 0.000000
vt 0.000000 0.000000
vt 0.000000 0.045000
vt 0.955000 0.000000
vt 1.000000 0.045000
vt 1.000000 0.000000
vt 1.000000 0.045000
vt 0.955000 0.000000
vt 1.000000 0.000000
vt 1.000000 1.000000
vt 0.955000 1.000000
vt 1.000000 0.955000
vt 0.045000 0.000000
vt 0.000000 0.045000
vt 0.000000 0.000000
vt 0.000000 1.000000
vt 0.045000 1.000000
vt 0.000000 0.955000
vt 1.000000 1.000000
vt 1.000000 0.955000
vt 0.955000 1.000000
vt 0.000000 1.000000
vt 0.000000 0.955000
vt 0.045000 1.000000
vt 0.955000 0.000000
vt 0.045000 0.000000
vt 0.000000 0.045000
vt 0.955000 0.000000
vt 1.000000 0.955000
vt 1.000000 0.045000
vt 0.045000 1.000000
vt 0.955000 1.000000
vt 0.955000 0.000000
vt 0.000000 0.045000
vt 0.000000 0.955000
vt 0.955000 0.000000
vt 0.955000 0.000000
vt 0.000000 0.955000
vt 0.045000 1.000000
vt 0.955000 0.000000
vt 0.955000 1.000000
vt 1.000000 0.955000
vt 0.000000 0.955000
vt 0.955000 1.000000
vt 0.045000 1.000000
vt 0.045000 0.000000
vt 0.955000 0.000000
vt 0.000000 0.955000
vt 0.000000 0.955000
vt 0.955000 0.000000
vt 1.000000 0.045000
vt 0.000000 0.955000
vt 0.000000 0.045000
vt 0.045000 0.000000
vt 1.000000 0.045000
vt 1.000000 0.955000
vt 0.000000 0.955000
vt 0.000000 0.955000
vt 1.000000 0.955000
vt 0.955000 1.000000
vt 0.000000 0.955000
vt 0.045000 1.000000
vt 0.955000 1.000000
vt 0.045000 0.000000
vt 0.000000 0.045000
vt 0.000000 0.955000
vt 0.000000 0.955000
vt 0.955000 0.000000
vt 0.045000 0.000000
vt 0.955000 1.000000
vt 1.000000 0.955000
vt 0.000000 0.955000
vt 1.000000 0.045000
vt 0.955000 0.000000
vt 0.000000 0.955000
vt 0.000000 0.955000
vt 1.000000 0.955000
vt 1.000000 0.045000
vt 0.045000 1.000000
vt 0.955000 0.000000
vt 0.045000 0.000000
vt 0.000000 0.045000
vt 0.000000 0.955000
vt 0.045000 1.000000
vt 0.045000 0.000000
vt 0.000000 0.045000
vt 0.045000 1.000000
vt 0.955000 1.000000
vt 1.000000 0.955000
vt 0.045000 1.000000
vt 1.000000 0.045000
vt 0.955000 0.000000
vt 0.045000 1.000000
vt 0.045000 1.000000
vt 1.000000 0.955000
vt 1.000000 0.045000
vt 0.955000 1.000000
vt 0.045000 1.000000
vt 0.955000 0.000000
vt 0.955000 0.000000
vt 1.000000 0.955000
vt 0.955000 1.000000
vt 0.955000 0.000000
vt 0.000000 0.045000
vt 0.045000 0.000000
vt 1.000000 0.045000
vt 1.000000 0.955000
vt 0.955000 0.000000
vt 0.000000 0.955000
vt 0.000000 0.045000
vt 0.955000 0.000000
vt 0.955000 0.000000
vt 0.045000 1.000000
vt 0.000000 0.955000
vt 0.955000 1.000000
vt 0.000000 0.045000
vt 0.045000 0.000000
vt 0.045000 1.000000
vt 0.000000 0.955000
vt 0.955000 1.000000
vt 0.045000 0.000000
vt 0.955000 0.000000
vt 0.955000 1.000000
vt 0.955000 1.000000
vt 0.955000 0.000000
vt 1.000000 0.045000
vt 1.000000 0.045000
vt 1.000000 0.955000
vt 0.955000 1.000000
vt 0.955000 1.000000
vt 0.000000 0.955000
vt 0.000000 0.045000
vn -0.577350 -0.577350 -0.577350
vn -0.577350 -0.577350 -0.577350
vn -0.577350 -0.577350 -0.577350
vn -0.577350 0.577350 -0.577350
vn -0.577350 0.577350 -0.577350
vn -0.577350 0.577350 -0.577350
vn 0.577350 0.577350 -0.577350
vn 0.577350 0.577350 -0.577350
vn 0.577350 0.577350 -0.577350
vn 0.577350 0.577350 0.577350
vn 0.577350 0.577350 0.577350
vn 0.577350 0.577350 0.577350
vn 0.577350 -0.577350 -0.577350
vn 0.577350 -0.577350 -0.577350
vn 0.577350 -0.577350 -0.577350
vn -0.577350 -0.577350 0.577350
vn -0.577350 -0.577350 0.577350
vn -0.577350 -0.577350 0.577350
vn -0.577350 0.577350 0.577350
vn -0.577350 0.577350 0.577350
vn -0.577350 0.577350 0.577350
vn 0.577350 -0.577350 0.577350
vn 0.577350 -0.577350 0.577350
vn 0.577350 -0.577350 0.577350
vn 0.000000 0.000000 -1.000000
vn 0.000000 0.000000 -1.000000
vn 0.000000 0.000000 -1.000000
vn 0.000000 0.000000 -1.000000
vn 0.000000 0.000000 -1.000000
vn 0.000000 0.000000 -1.000000
vn -0.000000 0.000000 -1.000000
vn -0.000000 0.000000 -1.000000
vn -0.000000 0.000000 -1.000000
vn -0.000000 -0.000000 -1.000000
vn -0.000000 -0.000000 -1.000000
vn -0.000000 -0.000000 -1.000000
vn 0.000000 0.000000 -1.000000
vn 0.000000 0.000000 -1.000000
vn 0.000000 0.000000 -1.000000
vn 0.000000 0.000000 -1.000000
vn 0.000000 0.000000 -1.000000
vn 0.000000 0.000000 -1.000000
vn 1.000000 0.000000 0.000000
vn 1.000000 0.000000 0.000000
vn 1.000000 0.000000 0.000000
vn 1.000000 -0.000000 -0.000000
vn 1.000000 -0.000000 -0.000000
vn 1.000000 -0.000000 -0.000000
vn 1.000000 0.000000 0.000000
vn 1.000000 0.000000 0.000000
vn 1.000000 0.000000 0.000000
vn 1.000000 0.000000 0.000000
vn 1.000000 0.000000 0.000000
vn 1.000000 0.000000 0.000000
vn 1.000000 -0.000000 -0.000000
vn 1.000000 -0.000000 -0.000000
vn 1.000000 -0.000000 -0.000000
vn 1.000000 0.000000 0.000000
vn 1.000000 0.000000 0.000000
vn 1.000000 0.000000 0.000000
vn -1.000000 0.000000 0.000000
vn -1.000000 0.000000 0.000000
vn -1.000000 0.000000 0.000000
vn -1.000000 -0.000000 -0.000000
vn -1.000000 -0.000000 -0.000000
vn -1.000000 -0.000000 -0.000000
vn -1.000000 0.000000 0.000000
vn -1.000000 0.000000 0.000000
vn -1.000000 0.000000 0.000000
vn -1.000000 -0.000000 -0.000000
vn -1.000000 -0.000000 -0.000000
vn -1.000000 -0.000000 -0.000000
vn -1.000000 -0.000000 -0.000000
vn -1.000000 -0.000000 -0.000000
vn -1.000000 -0.000000 -0.000000
vn -1.000000 0.000000 0.000000
vn -1.000000 0.000000 0.000000
vn -1.000000 0.000000 0.000000
vn 0.000000 1.000000 0.000000
vn 0.000000 1.000000 0.000000
vn 0.000000 1.000000 0.000000
vn -0.000000 1.000000 -0.000000
vn -0.000000 1.000000 -0.000000
vn -0.000000 1.000000 -0.000000
vn -0.000000 1.000000 0.000000
vn -0.000000 1.000000 0.000000
vn -0.000000 1.000000 0.000000
vn -0.000000 1.000000 -0.000000
vn -0.000000 1.000000 -0.000000
vn -0.000000 1.000000 -0.000000
vn -0.000000 1.000000 -0.000000
vn -0.000000 1.000000 -0.000000
vn -0.000000 1.000000 -0.000000
vn 0.000000 1.000000 0.000000
vn 0.000000 1.000000 0.000000
vn 0.000000 1.000000 0.000000
vn -0.000000 -0.000000 1.000000
vn -0.000000 -0.000000 1.000000
vn -0.000000 -0.000000 1.000000
vn 0.000000 0.000000 1.000000
vn 0.000000 0.000000 1.000000
vn 0.000000 0.000000 1.000000
vn 0.000000 0.000000 1.000000
vn 0.000000 0.000000 1.000000
vn 0.000000 0.000000 1.000000
vn -0.000000 -0.000000 1.000000
vn -0.000000 -0.000000 1.000000
vn -0.000000 -0.000000 1.000000
vn -0.000000 -0.000000 1.000000
vn -0.000000 -0.000000 1.000000
vn -0.000000 -0.000000 1.000000
vn 0.000000 0.000000 1.000000
vn 0.000000 0.000000 1.000000
vn 0.000000 0.000000 1.000000
vn 0.000000 -1.000000 0.000000
vn 0.000000 -1.000000 0.000000
vn 0.000000 -1.000000 0.000000
vn -0.000000 -1.000000 -0.000000
vn -0.000000 -1.000000 -0.000000
vn -0.000000 -1.000000 -0.000000
vn -0.000000 -1.000000 -0.000000
vn -0.000000 -1.000000 -0.000000
vn -0.000000 -1.000000 -0.000000
vn 0.000000 -1.000000 0.000000
vn 0.000000 -1.000000 0.000000
vn 0.000000 -1.000000 0.000000
vn -0.000000 -1.000000 -0.000000
vn -0.000000 -1.000000 -0.000000
vn -0.000000 -1.000000 -0.000000
vn 0.000000 -1.000000 0.000000
vn 0.000000 -1.000000 0.000000
vn 0.000000 -1.000000 0.000000
f 2/1/1 1/2/2 3/3/3
f 8/4/4 9/5/5 7/6/6
f 21/7/7 20/8/8 19/9/9
f 22/10/10 23/11/11 24/12/12
f 14/13/13 15/14/14 13/15/15
f 4/16/16 5/17/17 6/18/18
f 10/19/19 12/20/20 11/21/21
f 16/22/22 18/23/23 17/24/24
f 13/25/25 1/26/26 2/27/27
f 13/28/28 20/29/29 14/30/30
f 7/31/31 19/32/32 13/33/33
f 2/34/34 8/35/35 13/36/36
f 13/37/37 8/38/38 7/39/39
f 13/40/40 19/41/41 20/42/42
f 18/43/43 23/44/44 17/45/45
f 14/46/46 20/47/47 18/48/48
f 18/49/49 20/50/50 21/51/51
f 18/52/52 15/53/53 14/54/54
f 21/55/55 24/56/56 18/57/57
f 18/58/58 24/59/59 23/60/60
f 6/61/61 5/62/62 11/63/63
f 2/64/64 3/65/65 6/66/66
f 6/67/67 8/68/68 2/69/69
f 11/70/70 12/71/71 6/72/72
f 9/73/73 8/74/74 6/75/75
f 6/76/76 12/77/77 9/78/78
f 10/79/79 19/80/80 7/81/81
f 9/82/82 12/83/83 10/84/84
f 7/85/85 9/86/86 10/87/87
f 22/88/88 24/89/89 10/90/90
f 21/91/91 19/92/92 10/93/93
f 10/94/94 24/95/95 21/96/96
f 22/97/97 10/98/98 16/99/99
f 16/100/100 23/101/101 22/102/102
f 16/103/103 5/104/104 4/105/105
f 17/106/106 23/107/107 16/108/108
f 11/109/109 5/110/110 16/111/111
f 16/112/112 10/113/113 11/114/114
f 16/115/115 3/116/116 1/117/117
f 4/118/118 6/119/119 16/120/120
f 1/121/121 13/122/122 16/123/123
f 16/124/124 13/125/125 15/126/126
f 15/127/127 18/128/128 16/129/129
f 16/130/130 6/131/131 3/132/132
